<?xml version="1.0" encoding="utf-8"?>
<!-- Generator: Adobe Illustrator 19.1.0, SVG Export Plug-In . SVG Version: 6.00 Build 0)  -->
<svg version="1.1" id="Layer_1" xmlns="http://www.w3.org/2000/svg" xmlns:xlink="http://www.w3.org/1999/xlink" x="0px" y="0px"
	 viewBox="0 0 230.9 224.6" style="enable-background:new 0 0 230.9 224.6;" xml:space="preserve">
<style type="text/css">
	.st0{fill:#000000;}
</style>
<path class="st0" d="M3.5,108.8c0,0,25.8-31.4,74.6-77.9C91.8,17.9,116,0,142.3,0c28.4,0,46,19.1,46,36.7s-12.3,36-38.6,36
	c-13.7,0-25.6-9.1-25.6-21.9c0-6,5.3-15.1,17.7-15.1c11.6,0,14.6,11.9,13.7,16.3c0,0,8.8-3,8.8-13.3c0-10.2-9.8-17.9-22.1-17.9
	c-19.3,0-37.9,16.5-45.1,23C68.6,70.2,55.1,87.7,55.1,87.7h175.8l-9.8,21.2H3.5z"/>
<path class="st0" d="M0,120c0,0,11.2,32.1,26.3,62.5c12.8,26.3,34.2,42.1,60.2,42.1c24.4,0,40.9-18.4,40.9-35.6
	c0-19.5-15.3-32.5-33.7-32.5c-19.3,0-23.2,14.2-23.2,17.9c0,8.1,7,16,16,16c14.2,0,15.1-11.2,15.1-11.2s4.4,2.6,4.4,9.8
	c0,6.7-6,15.3-19.5,15.3c-10.9,0-27.2-5.6-38.1-28.4c-13.3-26.7-13.9-34.6-13.9-34.6h171.8L216,120H0z"/>
<path class="st0" d="M3.5,108.8c0,0,25.8-31.4,74.6-77.9C91.8,17.9,116,0,142.3,0c28.4,0,46,19.1,46,36.7s-12.3,36-38.6,36
	c-13.7,0-25.6-9.1-25.6-21.9c0-6,5.3-15.1,17.7-15.1c11.6,0,14.6,11.9,13.7,16.3c0,0,8.8-3,8.8-13.3c0-10.2-9.8-17.9-22.1-17.9
	c-19.3,0-37.9,16.5-45.1,23C68.6,70.2,55.1,87.7,55.1,87.7h175.8l-9.8,21.2H3.5z"/>
<path class="st0" d="M0,120c0,0,11.2,32.1,26.3,62.5c12.8,26.3,34.2,42.1,60.2,42.1c24.4,0,40.9-18.4,40.9-35.6
	c0-19.5-15.3-32.5-33.7-32.5c-19.3,0-23.2,14.2-23.2,17.9c0,8.1,7,16,16,16c14.2,0,15.1-11.2,15.1-11.2s4.4,2.6,4.4,9.8
	c0,6.7-6,15.3-19.5,15.3c-10.9,0-27.2-5.6-38.1-28.4c-13.3-26.7-13.9-34.6-13.9-34.6h171.8L216,120H0z"/>
<path class="st0" d="M0,120c0,0,11.2,32.1,26.3,62.5c12.8,26.3,34.2,42.1,60.2,42.1c24.4,0,40.9-18.4,40.9-35.6
	c0-19.5-15.3-32.5-33.7-32.5c-19.3,0-23.2,14.2-23.2,17.9c0,8.1,7,16,16,16c14.2,0,15.1-11.2,15.1-11.2s4.4,2.6,4.4,9.8
	c0,6.7-6,15.3-19.5,15.3c-10.9,0-27.2-5.6-38.1-28.4c-13.3-26.7-13.9-34.6-13.9-34.6h171.8L216,120H0z"/>
<path class="st0" d="M0,120c0,0,11.2,32.1,26.3,62.5c12.8,26.3,34.2,42.1,60.2,42.1c24.4,0,40.9-18.4,40.9-35.6
	c0-19.5-15.3-32.5-33.7-32.5c-19.3,0-23.2,14.2-23.2,17.9c0,8.1,7,16,16,16c14.2,0,15.1-11.2,15.1-11.2s4.4,2.6,4.4,9.8
	c0,6.7-6,15.3-19.5,15.3c-10.9,0-27.2-5.6-38.1-28.4c-13.3-26.7-13.9-34.6-13.9-34.6h171.8L216,120H0z"/>
</svg>
