<?xml version="1.0" encoding="utf-8"?>
<!-- Generator: Adobe Illustrator 19.1.0, SVG Export Plug-In . SVG Version: 6.00 Build 0)  -->
<svg version="1.1" id="Layer_1" xmlns="http://www.w3.org/2000/svg" xmlns:xlink="http://www.w3.org/1999/xlink" x="0px" y="0px"
	 viewBox="0 0 511.2 224.6" style="enable-background:new 0 0 511.2 224.6;" xml:space="preserve">
<style type="text/css">
	.st0{fill:#000000;}
</style>
<polygon class="st0" points="413.5,0 359.8,67.7 266,67.7 323.9,128 262.8,211.7 365.3,158.5 441.4,224.6 421.6,126.9 511.2,67.7 
	417.7,67.7 "/>
<path class="st0" d="M265.3,110.1h-20.2v43.4c0,7.9,4.6,9.6,11.7,9.6c2.7,0,5.6-0.4,8.5-0.4v24c-6,0.2-11.9,1-17.9,1
	c-27.9,0-35-8.1-35-35.2v-42.5h-16.5V88.2h16.5V56.8h32.7v31.3h20.2"/>
<path class="st0" d="M91.2,145.3c0,29.2-15,43.9-45.6,43.9C11.1,189.2,0,169.4,0,140.4v-5.6h31.9v12c0,8.6,4.7,13.3,13.1,13.3
	c7.8,0,12.2-4.4,12.2-17V56.3h33.9"/>
<path class="st0" d="M127.1,144.8c0.6,13.5,8.4,22.5,22.1,22.5c7.8,0,15.4-3.6,18.5-10.8h30.3c-5.9,22.9-27.1,32.8-49.2,32.8
	c-32.2,0-54.1-19.4-54.1-52.6c0-30.3,24.2-52,53.4-52c35.5,0,53.2,26.7,51.7,60.2 M167.4,126.7c-0.6-11.1-8.4-20.2-19.3-20.2
	c-11.4,0-19.1,8.2-21,20.2H167.4z"/>
</svg>
