<?xml version="1.0" encoding="utf-8"?>
<!-- Generator: Adobe Illustrator 19.1.0, SVG Export Plug-In . SVG Version: 6.00 Build 0)  -->
<svg version="1.1" id="Layer_1" xmlns="http://www.w3.org/2000/svg" xmlns:xlink="http://www.w3.org/1999/xlink" x="0px" y="0px"
	 viewBox="0 0 509.4 120.9" style="enable-background:new 0 0 509.4 120.9;" xml:space="preserve">
<style type="text/css">
	.st0{fill:#000000;}
</style>
<path class="st0" d="M443,15.2c0,4.1-3.3,7.4-7.4,7.4c-4.1,0-7.4-3.3-7.4-7.4c0-4.1,3.3-7.4,7.4-7.4C439.7,7.8,443,11.1,443,15.2
	 M161.4,15.2c0,4.1-3.3,7.4-7.4,7.4c-4.1,0-7.4-3.3-7.4-7.4c0-4.1,3.3-7.4,7.4-7.4C158.1,7.8,161.4,11.1,161.4,15.2 M450.8,15.2
	C450.8,6.8,444,0,435.7,0c-7,0-12.8,4.7-14.5,11.1H168.6C166.8,4.7,161,0,154,0c-8.4,0-15.2,6.8-15.2,15.2c0,8.4,6.8,15.2,15.2,15.2
	c7,0,12.8-4.7,14.5-11.1h252.6c1.8,6.4,7.6,11.1,14.5,11.1C444,30.3,450.8,23.5,450.8,15.2"/>
<path class="st0" d="M63.2,55.4c0,12.1-9.8,21.9-21.9,21.9c-12.1,0-21.9-9.8-21.9-21.9c0-12.1,9.8-21.9,21.9-21.9
	C53.4,33.5,63.2,43.3,63.2,55.4 M82.6,55.4c0-22.8-18.5-41.3-41.3-41.3C18.5,14.1,0,32.6,0,55.4c0,22.8,18.5,41.3,41.3,41.3
	C64.1,96.6,82.6,78.2,82.6,55.4 M135.6,58.2l2.2-16.2c-0.4-0.7-4.7-2.6-9.9-2.6c-7,0-10.8,3.2-13.5,8.2c-1.9-5.7-6.4-8.2-12.9-8.2
	s-12.7,1.8-13.2,2.3l0.5,14c0.5-0.3,3.2-1.4,5.4-1.4c2.9,0,3.4,2.2,3.4,5.1v36.4h17.8v-29c0.5-5.7,2.9-11,9.4-11
	C130.3,55.8,135.1,57.5,135.6,58.2 M161.5,96.8c6.7,0,12.8-1.9,13.3-2.3L174,80.4c-0.3,0.3-3,1.5-5.2,1.5c-2.9,0-3.4-2.3-3.4-5.1
	V40.3h-22.8v17.8h5v23C147.6,92.4,152.7,96.8,161.5,96.8 M221.6,73c-2.8,2.4-6.6,4.1-10.7,4.1c-7.6,0-12.5-4.3-12.5-11
	c0-6.8,4.8-11.2,12.5-11.2c4.3,0,8.4,2.1,10.7,4.2V73z M239.4,92.3v-5.6V40.3h-17.8V45c-3.5-3.4-8.7-5.6-15.8-5.6
	c-15.2,0-25.6,12-25.6,26.7c0,14.5,10.4,26.5,25.6,26.5c6.7,0,12.1-2,15.8-5.3V96c0,8.1-5.7,10.5-12.3,10.5
	c-8.2,0-14.2-3.1-17.9-5.1l-3.7,14.2c3.8,1.7,10.8,5.3,22.6,5.3C226.7,120.9,239.4,111.5,239.4,92.3 M265.3,96.8
	c6.7,0,12.8-1.9,13.3-2.3l-0.7-14.1c-0.3,0.3-3,1.5-5.2,1.5c-2.9,0-3.4-2.3-3.4-5.1l0-36.5h-22.8v17.8h5v23
	C251.4,92.4,256.5,96.8,265.3,96.8 M337.2,96.8c5.4,0,10.2-1.1,13.2-2.3l-0.5-14.1c-1.8,0.9-3.7,1.5-5.4,1.5c-2.8,0-3.4-2.3-3.4-5.1
	V63.8c0-13.6-6-24.5-20.4-24.5c-7.1,0-12.8,2.9-16.9,7.1v-6.2H286v55.5h17.8V62.7c1.6-3.2,5.1-6.9,10.1-6.9c6,0,9.3,3.9,9.3,11v14.3
	C323.2,92.5,328.3,96.8,337.2,96.8 M394.9,77.3c-2.7,2.4-6.7,4-10.6,4c-7.6,0-12.5-5.2-12.5-13.1c0-8.1,4.8-13.3,12.5-13.3
	c4.1,0,8.4,1.8,10.6,4V77.3z M408.7,96.7c5.3,0,10.3-1.2,13.2-2.3l-0.6-14.1c-1.7,0.8-3.4,1.5-5.3,1.5c-2.6,0-3.4-2.3-3.4-5.1V40.4
	h-17.8v4.9c-3.5-3.7-8.8-5.8-15.7-5.8c-15.1,0-25.5,12-25.5,28.8c0,16.6,10.4,28.5,25.5,28.5c7.4,0,13.2-3.4,16.9-7.8
	C398,94.3,402.4,96.7,408.7,96.7 M443,96.8c6.7,0,12.8-1.9,13.3-2.3l-0.7-14.1c-0.3,0.3-3,1.5-5.2,1.5c-2.9,0-3.4-2.3-3.4-5.1V40.3
	h0v0h-22.8v17.8h5v23C429.1,92.4,434.2,96.8,443,96.8 M509.4,42c-0.4-0.7-6.1-2.6-11.2-2.6c-7,0-10.8,3.2-13.5,8.2
	c-1.9-5.7-6.4-8.2-12.9-8.2c-6.6,0-12.7,1.8-13.2,2.3l0.5,14c0.5-0.3,3.2-1.4,5.4-1.4c2.9,0,3.4,2.2,3.4,5.1v36.4h17.8v-29
	c0.5-5.7,2.9-11,9.4-11c5.3,0,10.1,1.7,10.6,2.4L509.4,42z"/>
</svg>
